HIERARCHY
ROOT root
{
	OFFSET	0.000000	0.000000	0.000000
	CHANNELS 6 Xposition Yposition Zposition Zrotation Yrotation Xrotation
	JOINT lhipjoint
	{
		OFFSET	0.000000	0.000000	0.000000
		CHANNELS 3 Zrotation Yrotation Xrotation
		JOINT lfemur
		{
			OFFSET	1.656736	-1.802822	0.624766
			CHANNELS 3 Zrotation Yrotation Xrotation
			JOINT ltibia
			{
				OFFSET	2.597200	-7.135754	0.000000
				CHANNELS 3 Zrotation Yrotation Xrotation
				JOINT lfoot
				{
					OFFSET	2.492357	-6.847701	0.000000
					CHANNELS 3 Zrotation Yrotation Xrotation
					JOINT ltoes
					{
						OFFSET	0.197038	-0.541357	2.145811
						CHANNELS 3 Zrotation Yrotation Xrotation
						End Site
						{
							OFFSET	0.000000	-0.000000	1.112490
						}
					}
				}
			}
		}
	}
	JOINT rhipjoint
	{
		OFFSET	0.000000	0.000000	0.000000
		CHANNELS 3 Zrotation Yrotation Xrotation
		JOINT rfemur
		{
			OFFSET	-1.610701	-1.802823	0.624765
			CHANNELS 3 Zrotation Yrotation Xrotation
			JOINT rtibia
			{
				OFFSET	-2.595021	-7.129768	0.000000
				CHANNELS 3 Zrotation Yrotation Xrotation
				JOINT rfoot
				{
					OFFSET	-2.467804	-6.780241	0.000000
					CHANNELS 3 Zrotation Yrotation Xrotation
					JOINT rtoes
					{
						OFFSET	-0.230239	-0.632577	2.133676
						CHANNELS 3 Zrotation Yrotation Xrotation
						End Site
						{
							OFFSET	-0.000000	-0.000000	1.115690
						}
					}
				}
			}
		}
	}
	JOINT lowerback
	{
		OFFSET	0.000000	0.000000	0.000000
		CHANNELS 3 Zrotation Yrotation Xrotation
		JOINT upperback
		{
			OFFSET	0.019612	2.054496	-0.141116
			CHANNELS 3 Zrotation Yrotation Xrotation
			JOINT thorax
			{
				OFFSET	0.010210	2.064356	-0.059210
				CHANNELS 3 Zrotation Yrotation Xrotation
				JOINT lowerneck
				{
					OFFSET	0.001509	2.068054	0.008037
					CHANNELS 3 Zrotation Yrotation Xrotation
					JOINT upperneck
					{
						OFFSET	0.007130	1.567112	0.149683
						CHANNELS 3 Zrotation Yrotation Xrotation
						JOINT head
						{
							OFFSET	0.034286	1.560409	-0.100058
							CHANNELS 3 Zrotation Yrotation Xrotation
							End Site
							{
								OFFSET	0.013051	1.625595	-0.052648
							}
						}
					}
				}
				JOINT lclavicle
				{
					OFFSET	0.001509	2.068054	0.008037
					CHANNELS 3 Zrotation Yrotation Xrotation
					JOINT lhumerus
					{
						OFFSET	3.542050	0.904362	-0.173638
						CHANNELS 3 Zrotation Yrotation Xrotation
						JOINT lradius
						{
							OFFSET	4.865130	-0.000000	-0.000000
							CHANNELS 3 Zrotation Yrotation Xrotation
							JOINT lwrist
							{
								OFFSET	3.355540	-0.000000	0.000000
								CHANNELS 3 Zrotation Yrotation Xrotation
								JOINT lhand
								{
									OFFSET	1.677770	-0.000000	0.000000
									CHANNELS 3 Zrotation Yrotation Xrotation
									JOINT lfingers
									{
										OFFSET	0.661175	-0.000000	0.000000
										CHANNELS 3 Zrotation Yrotation Xrotation
										End Site
										{
											OFFSET	0.533057	-0.000000	0.000000
										}
									}
								}
								JOINT lthumb
								{
									OFFSET	1.677770	-0.000000	0.000000
									CHANNELS 3 Zrotation Yrotation Xrotation
									End Site
									{
										OFFSET	0.541196	-0.000000	0.541196
									}
								}
							}
						}
					}
				}
				JOINT rclavicle
				{
					OFFSET	0.001509	2.068054	0.008037
					CHANNELS 3 Zrotation Yrotation Xrotation
					JOINT rhumerus
					{
						OFFSET	-3.498016	0.759940	-0.326156
						CHANNELS 3 Zrotation Yrotation Xrotation
						JOINT rradius
						{
							OFFSET	-5.026490	-0.000000	0.000000
							CHANNELS 3 Zrotation Yrotation Xrotation
							JOINT rwrist
							{
								OFFSET	-3.364310	-0.000000	0.000000
								CHANNELS 3 Zrotation Yrotation Xrotation
								JOINT rhand
								{
									OFFSET	-1.682160	-0.000000	0.000000
									CHANNELS 3 Zrotation Yrotation Xrotation
									JOINT rfingers
									{
										OFFSET	-0.730406	-0.000000	0.000000
										CHANNELS 3 Zrotation Yrotation Xrotation
										End Site
										{
											OFFSET	-0.588872	-0.000000	0.000000
										}
									}
								}
								JOINT rthumb
								{
									OFFSET	-1.682160	-0.000000	0.000000
									CHANNELS 3 Zrotation Yrotation Xrotation
									End Site
									{
										OFFSET	-0.597863	-0.000000	0.597863
									}
								}
							}
						}
					}
				}
			}
		}
	}
}
MOTION
Frames:	4
Frame Time:	0.008333
	9.993800	17.224600	-0.494152	1.749080	-29.982805	-5.198700	0.000000	0.000000	0.000000	-18.764650	6.828837	-21.837864	4.660167	12.990564	39.333153	0.373352	10.886793	-20.120689	0.032232	-1.158908	-3.186147	0.000000	0.000000	0.000000	17.798487	-2.935763	-4.663462	-3.468841	-11.417886	33.702526	-1.643306	-6.652021	-27.397741	-0.333916	3.713646	-10.272416	-1.778670	1.898590	11.311300	-1.191720	2.243600	5.646450	-0.491272	1.072460	-0.468985	-0.807963	2.988180	-13.961399	-2.602150	4.080811	-3.005190	-0.466001	1.952190	1.445540	-0.807963	-0.000000	-0.000000	-86.582069	4.636975	43.880146	124.912018	-54.852192	-89.712074	-0.000000	0.000002	-20.062990	28.140064	2.974134	1.589586	-7.125019	0.000000	0.000000	1.253898	33.349773	-0.358159	-0.807963	-0.000000	-0.000000	76.734314	-0.043244	47.901680	-118.178474	56.776100	-84.139153	0.000000	0.000000	2.202294	-32.849205	28.113602	-16.922617	7.125019	0.000000	0.000000	-1.379250	2.465895	-1.437722
	9.994970	17.203600	-0.492394	2.310310	-30.619492	-5.706359	0.000000	0.000000	0.000000	-19.197308	7.229462	-21.761879	4.729687	13.072762	39.641457	0.401369	11.068889	-20.610098	0.019812	-0.908752	-2.497774	0.000000	0.000000	0.000000	17.195734	-2.741970	-4.659329	-3.564878	-11.557709	34.184734	-1.682728	-6.179712	-27.392061	-0.320950	3.641538	-10.070305	-1.831090	1.778410	11.170100	-1.109380	2.084480	5.655129	-0.353753	0.990161	-0.387718	-0.835583	3.310490	-13.437999	-2.995140	4.506379	-3.153430	-0.571850	2.160610	1.319310	-0.835583	-0.000000	0.000000	-86.808060	4.658984	44.001877	124.889412	-54.859634	-89.693596	-0.000000	0.000002	-19.942190	27.955214	2.891810	1.533681	-7.125019	0.000000	0.000000	1.103597	33.251354	-0.317843	-0.835583	-0.000000	0.000000	76.933624	-1.675056	47.660389	-119.131737	56.536880	-84.935509	0.000000	0.000000	2.428970	-32.526184	28.500834	-16.924929	7.125019	0.000000	0.000000	-1.116581	2.795698	-1.169935
	9.998150	17.178400	-0.514208	1.444810	-31.182198	-5.343140	0.000000	0.000000	0.000000	-18.243010	7.459723	-22.019396	4.792443	13.146175	39.918148	0.367924	11.352651	-20.574886	0.008037	-0.578912	-1.590800	0.000000	0.000000	0.000000	18.137886	-2.268988	-4.854059	-3.674410	-11.714056	34.727787	-1.724177	-6.005315	-27.578133	-0.255276	3.250789	-8.977761	-0.776246	1.481630	11.230701	-0.687915	1.800510	5.566860	-0.480211	0.863777	-0.493574	-0.497243	3.711189	-13.461100	-3.688800	5.015829	-2.727600	-0.816816	2.387050	1.501890	-0.497243	-0.000000	0.000000	-87.015015	4.632711	43.868904	124.898453	-54.856670	-89.700989	0.000000	-0.000002	-19.434795	27.148113	3.186462	1.632689	-7.125019	0.000000	0.000000	0.440618	33.559505	-0.123602	-0.497243	-0.000000	0.000000	76.963737	-3.138604	47.681923	-119.947784	56.323822	-85.615448	0.000000	0.000000	2.510507	-32.731945	28.494120	-17.048075	7.125019	0.000000	0.000000	-1.236243	2.847097	-1.296412
	9.999270	17.150600	-0.530958	1.253050	-32.114101	-5.576480	0.000000	0.000000	0.000000	-17.862555	8.102823	-21.939247	4.842440	13.204133	40.137493	0.421907	11.306574	-21.074917	0.006480	-0.519782	-1.428275	0.000000	0.000000	0.000000	18.397429	-1.642462	-4.764511	-3.792559	-11.879125	35.305706	-1.762763	-5.763058	-27.706041	-0.267579	3.327589	-9.192156	-0.408489	1.310810	11.487299	-0.426568	1.609170	5.607690	-0.400042	0.769959	-0.588227	-0.151650	4.165130	-13.905399	-4.233170	5.613541	-1.996960	-1.000750	2.649630	1.865400	-0.151650	-0.000000	0.000000	-87.299980	4.577413	43.259182	124.907509	-54.853680	-89.708397	-0.000000	0.000002	-18.256096	25.310833	4.007533	1.893046	-7.125019	0.000000	0.000000	-1.093045	34.409641	0.284132	-0.151650	-0.000000	0.000000	76.880653	-4.506135	47.879997	-120.674225	56.127563	-86.219299	-0.000000	-0.000003	2.617840	-33.493675	28.788244	-17.675543	7.125019	0.000000	0.000000	-1.613213	3.389284	-1.706423
